<?xml version="1.0" encoding="UTF-8" standalone="no"?>
<!DOCTYPE svg PUBLIC "-//W3C//DTD SVG 1.1//EN" "http://www.w3.org/Graphics/SVG/1.1/DTD/svg11.dtd">
<svg width="100%" height="100%" viewBox="0 0 32 32" version="1.1" xmlns="http://www.w3.org/2000/svg" xmlns:xlink="http://www.w3.org/1999/xlink" xml:space="preserve" xmlns:serif="http://www.serif.com/" style="fill-rule:evenodd;clip-rule:evenodd;stroke-linejoin:round;stroke-miterlimit:2;">
    <g transform="matrix(0.0625,0,0,0.0625,0,0)">
        <path d="M512,76.8L512,435.2C512,477.587 477.587,512 435.2,512L76.8,512C34.413,512 0,477.587 0,435.2L0,76.8C0,34.413 34.413,0 76.8,0L435.2,0C477.587,0 512,34.413 512,76.8Z" style="fill:rgb(219,36,117);"/>
    </g>
    <g transform="matrix(0.090904,0,0,0.090904,4.364225,4.364225)">
        <path d="M213.66,53.66L163.31,104L192,104C196.389,104 200,107.611 200,112C200,116.389 196.389,120 192,120L144,120C139.611,120 136,116.389 136,112L136,64C136,59.611 139.611,56 144,56C148.389,56 152,59.611 152,64L152,92.69L202.34,42.34C203.841,40.839 205.878,39.996 208,39.996C212.391,39.996 216.004,43.609 216.004,48C216.004,50.122 215.161,52.159 213.66,53.66ZM112,136L64,136C59.611,136 56,139.611 56,144C56,148.389 59.611,152 64,152L92.69,152L42.34,202.34C40.839,203.841 39.996,205.878 39.996,208C39.996,212.391 43.609,216.004 48,216.004C50.122,216.004 52.159,215.161 53.66,213.66L104,163.31L104,192C104,196.389 107.611,200 112,200C116.389,200 120,196.389 120,192L120,144C120,139.611 116.389,136 112,136Z" style="fill:rgb(250,243,247);fill-rule:nonzero;"/>
    </g>
</svg>
